<svg 
  width="100" 
  height="100" 
  viewBox="0 0 100 100" 
  fill="none" 
  xmlns="http://www.w3.org/2000/svg"
>
  <!-- Brain circle background -->
  <circle cx="50" cy="50" r="45" fill="#3f51b5" opacity="0.1" />
  
  <!-- Brain outline -->
  <path
    d="M65.5,30.5c-3.3,0-6.2,1.6-8,4c-1.8-2.4-4.7-4-8-4c-5.5,0-10,4.5-10,10c0,2.1,0.7,4.1,1.8,5.7
    C37,53.6,37,58.5,34.6,64c-2.3,5.3,2.1,11,7.7,11c2.4,0,4.6-1.1,6.1-2.8l1.6-1.8l1.6,1.8c1.5,1.7,3.7,2.8,6.1,2.8
    c5.6,0,10-5.7,7.7-11c-2.4-5.5-2.4-10.4-6.7-17.8c1.1-1.7,1.8-3.6,1.8-5.7C75.5,35,71,30.5,65.5,30.5z"
    stroke="#3f51b5"
    stroke-width="3.5"
    stroke-linecap="round"
    stroke-linejoin="round"
    fill="none"
  />
  
  <!-- Neural network connections -->
  <circle cx="50" cy="45" r="3" fill="#3f51b5" />
  <circle cx="40" cy="55" r="3" fill="#3f51b5" />
  <circle cx="60" cy="55" r="3" fill="#3f51b5" />
  <circle cx="50" cy="65" r="3" fill="#3f51b5" />
  
  <line x1="50" y1="45" x2="40" y2="55" stroke="#3f51b5" stroke-width="1.5" />
  <line x1="50" y1="45" x2="60" y2="55" stroke="#3f51b5" stroke-width="1.5" />
  <line x1="40" y1="55" x2="50" y2="65" stroke="#3f51b5" stroke-width="1.5" />
  <line x1="60" y1="55" x2="50" y2="65" stroke="#3f51b5" stroke-width="1.5" />
  
  <!-- AI text -->
  <text x="50" y="85" text-anchor="middle" fill="#3f51b5" font-weight="bold" font-size="14">
    AI LEARN
  </text>
</svg> 